<svg xmlns="http://www.w3.org/2000/svg" viewBox="0 0 32 32" width="32" height="32">
  <defs>
    <linearGradient id="spark" x1="0" y1="0" x2="1" y2="1">
      <stop offset="0%" stop-color="#ff5c96" />
      <stop offset="55%" stop-color="#ff2d78" />
      <stop offset="100%" stop-color="#e1034d" />
    </linearGradient>
  </defs>

  <rect width="32" height="32" rx="7" fill="#0d1117" />

  <!-- four-pointed AI sparkle, plain paths so it stays crisp at 16px -->
  <path fill="url(#spark)"
        d="M13.5 6.5c.6 5.2 4.3 8.9 9.5 9.5-5.2.6-8.9 4.3-9.5 9.5-.6-5.2-4.3-8.9-9.5-9.5 5.2-.6 8.9-4.3 9.5-9.5z" />
  <path fill="url(#spark)" opacity="0.85"
        d="M23.5 4.5c.25 2.3 1.7 3.75 4 4-2.3.25-3.75 1.7-4 4-.25-2.3-1.7-3.75-4-4 2.3-.25 3.75-1.7 4-4z" />
</svg>
